{"asset":{"generator":"Khronos glTF Spline I/O v0.0.1","version":"2.0"},"scenes":[{"nodes":[0]}],"nodes":[{"name":"","children":[1,2]},{"name":"Default Camera","camera":0,"translation":[-3.801256356353821e-75,6.123233995736766e-14,1000],"rotation":[-3.0591041888523034e-17,1.2401694796639607e-18,0.0405070092218398,0.9991792542901908],"children":[3,4]},{"name":"Personal Camera","camera":1,"translation":[-3.801256356353821e-75,6.123233995736766e-14,1000],"rotation":[-3.061616997868383e-17,-1.9006281781769105e-78,-5.818995536934047e-95,1]},{"name":"Cube","matrix":[0.853345510083012,0.11285843132723622,0.5089837078920291,0,-0.29321572206594937,0.9111399081688031,0.28956624125662156,0,-0.43107537711461436,-0.396342077277318,0.8106090161261431,0,-116.48950161645735,313.28418442162223,-1079.182636993435,1],"mesh":0},{"name":"Default Directional Light","translation":[850000,1300000,1000000],"rotation":[-0.45895513091666534,0.1367267597249462,-0.25064115022945466,0.8413352451859125],"extensions":{"KHR_lights_punctual":{"light":0}}}],"cameras":[{"type":"orthographic","orthographic":{"xmag":1536,"ymag":746,"zfar":100000,"znear":-50000}},{"type":"orthographic","orthographic":{"xmag":1536,"ymag":746,"zfar":500000,"znear":-500000}}],"meshes":[{"primitives":[{"attributes":{"POSITION":1,"NORMAL":2,"TEXCOORD_0":3},"indices":0}]}],"buffers":[{"uri":"data:application/octet-stream;base64,","byteLength":67656}],"bufferViews":[{"buffer":0,"byteOffset":0,"byteLength":14664,"target":34963},{"buffer":0,"byteOffset":14664,"byteLength":19872,"target":34962},{"buffer":0,"byteOffset":34536,"byteLength":19872,"target":34962},{"buffer":0,"byteOffset":54408,"byteLength":13248,"target":34962}],"accessors":[{"bufferView":0,"byteOffset":0,"componentType":5123,"count":7332,"type":"SCALAR","min":[0],"max":[1655]},{"bufferView":1,"byteOffset":0,"componentType":5126,"count":1656,"type":"VEC3","min":[-195,-202,-189],"max":[195,202,189]},{"bufferView":2,"byteOffset":0,"componentType":5126,"count":1656,"type":"VEC3","min":[-1,-1,-1],"max":[1,1,1]},{"bufferView":3,"byteOffset":0,"componentType":5126,"count":1656,"type":"VEC2","min":[0,0],"max":[1,1]}],"extensions":{"KHR_lights_punctual":{"lights":[{"type":"directional","name":"Default Directional Light","color":[1,1,1],"intensity":0.75}]}},"extensionsUsed":["KHR_lights_punctual"]}